<svg width="165" height="45" xmlns="http://www.w3.org/2000/svg"><g fill="none" fill-rule="evenodd"><path d="M60.543 26.516v4.013c-.04 1.192-.28 2.265-.722 3.179a5.477 5.477 0 0 1-1.724 2.146c-.801.634-1.883.993-3.326.993-1.444 0-2.566-.36-3.366-.993-.801-.595-1.323-1.352-1.683-2.146-.44-.914-.68-1.987-.722-3.179V13.32c.041-1.152.28-2.225.722-3.139.36-.794.882-1.59 1.683-2.185C52.205 7.4 53.329 7 54.77 7c1.445 0 2.525.4 3.326.995.8.597 1.364 1.391 1.724 2.185.44.916.683 1.987.722 3.14v4.013h-4.048V13.32c0-.794-.2-1.352-.641-1.828-.201-.2-.561-.318-1.002-.318-.761 0-1.121.556-1.322 1.073-.118.318-.16.677-.2 1.075v17.21c.04.832.28 1.39.682 1.825.2.202.48.318.84.318.923 0 1.283-.476 1.484-1.073.118-.277.16-.636.16-1.073v-4.013h4.047zm12.615 4.73c-.118 2.107-.76 3.576-2.163 4.729-.722.597-1.724.874-3.046.874-2.607 0-3.888-1.432-4.53-2.862a7.89 7.89 0 0 1-.64-2.86V20.195c.12-2.108.76-3.655 2.163-4.847.683-.599 1.685-.876 3.007-.876 2.605 0 3.928 1.432 4.57 2.821.36.836.6 1.75.639 2.785v11.168-.002zM69.35 20.193c.041-.833-.12-1.43-.522-1.909-.2-.199-.521-.318-.881-.318-.764 0-1.084.517-1.244 1.113-.12.318-.16.677-.12 1.112v10.93c-.04.833.162 1.432.522 1.867.2.2.48.318.842.318.76 0 1.121-.476 1.28-1.073.12-.318.162-.677.12-1.112v-10.93l.003.002zm16.847 16.335h-4.048v-1.432c-.68.636-1.281 1.112-2.042 1.471a2.622 2.622 0 0 1-1.163.277c-1.122 0-1.884-.636-2.366-1.471-.521-.794-.76-1.867-.76-2.78V18.722c0-.914.24-1.987.76-2.822.482-.794 1.244-1.432 2.366-1.432.759 0 1.564.437 2.164.876.36.277.68.556 1.041.874V7.316h4.048v29.213zm-4.048-16.971c0-.636-.602-1.311-1.202-1.311-.602 0-1.083.556-1.083 1.31v12.201c0 .757.48 1.311 1.083 1.311.6 0 1.202-.556 1.202-1.31V19.557zm17.434 9.18v2.505c-.12 2.108-.76 3.577-2.204 4.73-.722.597-1.723.874-3.046.874-2.605 0-3.927-1.432-4.569-2.862a7.935 7.935 0 0 1-.641-2.86V20.193c.12-2.108.8-3.655 2.245-4.847.683-.599 1.684-.876 3.007-.876 2.605 0 3.927 1.432 4.569 2.821.36.835.6 1.75.64 2.785v6.32h-6.695v4.73c.041.832.28 1.432.641 1.867.201.199.48.318.843.318.761 0 1.121-.476 1.28-1.074.12-.318.16-.677.16-1.112V28.74h3.768l.002-.002zm-6.694-5.485h2.926v-3.061c0-.833-.16-1.43-.56-1.909-.202-.199-.522-.318-.882-.318-.764 0-1.085.517-1.283 1.113-.12.318-.16.677-.201 1.112v3.063zm17.488-4.331a3.642 3.642 0 0 0-1.122-.158c-.64 0-1.403.08-2.042.675-.764.636-.884 1.31-.884 1.986v15.104h-4.048V14.787h4.048v2.425c.042-.277.32-.954.962-1.59.642-.597 1.604-1.153 3.086-1.153v4.453zm1.767 17.607V7.316h3.409c4.006 0 6.173.794 7.333 3.02 1.122 2.227 1.283 5.883 1.283 11.606s-.16 9.34-1.283 11.567c-1.16 2.226-3.327 3.02-7.333 3.02h-3.409zm4.332-4.293c1.481 0 2.324-.16 2.764-1.592.201-.675.362-1.71.402-3.1.041-1.391.041-3.259.041-5.645 0-2.384 0-4.252-.041-5.645-.04-1.35-.2-2.384-.402-3.1-.438-1.392-1.28-1.55-2.764-1.55v20.632zm20.563-.993c-.118 2.108-.76 3.577-2.163 4.73-.722.597-1.723.874-3.046.874-2.607 0-3.888-1.432-4.53-2.862a7.85 7.85 0 0 1-.639-2.86V20.193c.12-2.108.761-3.655 2.162-4.847.683-.599 1.685-.876 3.007-.876 2.606 0 3.928 1.432 4.57 2.821.36.835.6 1.75.639 2.785v11.168-.002zm-3.808-11.051c.041-.833-.12-1.43-.521-1.909-.201-.199-.522-.318-.882-.318-.764 0-1.084.517-1.244 1.113-.12.318-.159.677-.12 1.112v10.93c-.039.833.162 1.432.522 1.867.2.2.48.318.842.318.761 0 1.122-.476 1.28-1.073.121-.318.162-.677.121-1.112V20.19l.002.002zm6.504-12.878h4.048v4.013h-4.048V7.314zm4.048 7.473v22.296c0 1.112 0 2.862-.561 4.295-.56 1.469-1.802 2.622-4.09 2.622-.639 0-1.081-.041-1.36-.119-.162-.041-.28-.08-.402-.12v-3.695c.12.04.24.04.36.078.28.041.521.08.763.08.681 0 1.002-.556 1.161-1.23.042-.319.081-.678.081-1.035V14.787h4.048zM157 31.243c-.118 2.108-.762 3.577-2.162 4.73-.723.597-1.724.874-3.047.874-2.607 0-3.888-1.432-4.53-2.862a7.892 7.892 0 0 1-.639-2.86V20.193c.12-2.108.76-3.655 2.163-4.847.683-.599 1.684-.876 3.006-.876 2.606 0 3.928 1.432 4.57 2.821.36.835.6 1.75.639 2.785v11.168-.002zm-3.808-11.051c.042-.833-.12-1.43-.521-1.909-.201-.199-.522-.318-.882-.318-.761 0-1.084.517-1.244 1.113-.12.318-.159.677-.12 1.112v10.93c-.039.833.162 1.432.522 1.867.2.2.48.318.842.318.762 0 1.122-.476 1.283-1.073.12-.318.162-.677.12-1.112V20.19v.002z" fill="#0E0E0E"/><g><ellipse fill="#F9F9F9" cx="21.895" cy="22.485" rx="21.559" ry="22.049"/><path d="M21.985 0C34.127 0 43.97 10.067 43.97 22.485S34.127 44.97 21.985 44.97 0 34.903 0 22.485 9.843 0 21.985 0zm-.53 1.167C10.085 1.336.91 10.822.91 22.487c0 11.68 9.195 21.172 20.583 21.32-5.631-.146-10.156-4.866-10.156-10.658 0-5.885 4.67-10.662 10.425-10.662 5.754 0 10.425-4.777 10.425-10.662 0-5.885-4.67-10.662-10.425-10.662-.103 0-.206.002-.308.004z" fill="#0E0E0E"/><path d="M18.472 13.922V5.974c0-.348.124-.648.373-.9.247-.253.54-.381.882-.381h4.052c.335 0 .625.126.87.38.244.253.366.553.366.9v7.95c0 .352-.124.653-.366.904-.245.25-.541.374-.887.374h-4.035c-.35 0-.648-.124-.89-.374a1.25 1.25 0 0 1-.362-.905h-.003zm5.26-.048V6.039h-3.96v7.835h3.96z" fill="#0E0E0E"/><path d="M19.953 37.95h1.995v-7.834h-1.962a.625.625 0 0 1-.46-.194.642.642 0 0 1-.19-.47c0-.184.064-.342.19-.47a.622.622 0 0 1 .46-.193h3.262v9.164h1.3v-2.766c0-.179.063-.334.189-.467a.609.609 0 0 1 .459-.198c.18 0 .335.066.46.194.126.13.19.286.19.471v3.43a.659.659 0 0 1-.19.474.617.617 0 0 1-.46.191h-5.243a.608.608 0 0 1-.458-.2.672.672 0 0 1-.19-.48c0-.178.064-.331.19-.46a.624.624 0 0 1 .458-.189v-.002z" fill="#F9F9F9"/></g><path d="M161.003 4c.671 0 1.327.194 1.967.582.64.387 1.138.942 1.495 1.664a5.011 5.011 0 0 1 .008 4.494c-.352.715-.845 1.27-1.48 1.667-.634.395-1.298.593-1.99.593-.693 0-1.357-.198-1.991-.593-.635-.396-1.128-.952-1.482-1.667a4.991 4.991 0 0 1 .008-4.494c.359-.722.858-1.277 1.498-1.664.64-.388 1.295-.582 1.967-.582zm0 .746c-.562 0-1.11.162-1.641.486-.532.324-.948.787-1.249 1.39a4.14 4.14 0 0 0-.008 3.746 3.363 3.363 0 0 0 1.238 1.388c.53.332 1.084.498 1.66.498.576 0 1.129-.166 1.659-.498.53-.332.942-.795 1.235-1.39a4.16 4.16 0 0 0-.008-3.745c-.298-.602-.714-1.065-1.248-1.39-.534-.323-1.08-.485-1.638-.485zm-1.755 6.244V6.147h1.479c.505 0 .871.045 1.097.134.227.09.407.246.541.468.134.223.202.46.202.71 0 .354-.113.662-.337.925-.225.262-.522.41-.893.441.152.072.274.157.365.257.174.19.386.51.637.96l.524.948h-.848l-.381-.763c-.3-.6-.543-.976-.727-1.128-.127-.111-.313-.167-.556-.167h-.409v2.058h-.694zm.694-2.726h.843c.403 0 .678-.067.825-.202a.695.695 0 0 0 .22-.537.711.711 0 0 0-.106-.385.648.648 0 0 0-.295-.253c-.125-.056-.357-.084-.697-.084h-.79v1.461z" fill="#F9F9F9"/></g></svg>