
<svg width="25px" height="20px" viewBox="0 0 25 20" version="1.1" xmlns="http://www.w3.org/2000/svg" xmlns:xlink="http://www.w3.org/1999/xlink">
    <!-- Generator: Sketch 51 (57462) - http://www.bohemiancoding.com/sketch -->
    <desc>Created with Sketch.</desc>
    <defs></defs>
    <g id="HOME" stroke="none" stroke-width="1" fill="none" fill-rule="evenodd">
        <g id="CD_Home_Mobile" transform="translate(-330.000000, -20.000000)" fill="#FFFFFF">
            <g id="hero">
                <g id="Group-7" transform="translate(20.000000, 20.000000)">
                    <path d="M311.578947,0 L332.631579,1.11022302e-15 C333.503607,9.50033978e-16 334.210526,0.706918816 334.210526,1.57894737 C334.210526,2.45097592 333.503607,3.15789474 332.631579,3.15789474 L311.578947,3.15789474 C310.706919,3.15789474 310,2.45097592 310,1.57894737 C310,0.706918816 310.706919,-2.83900164e-16 311.578947,-4.4408921e-16 Z M311.578947,8.42105263 L332.631579,8.42105263 C333.503607,8.42105263 334.210526,9.12797145 334.210526,10 C334.210526,10.8720286 333.503607,11.5789474 332.631579,11.5789474 L311.578947,11.5789474 C310.706919,11.5789474 310,10.8720286 310,10 C310,9.12797145 310.706919,8.42105263 311.578947,8.42105263 Z M311.578947,16.8421053 L332.631579,16.8421053 C333.503607,16.8421053 334.210526,17.5490241 334.210526,18.4210526 C334.210526,19.2930812 333.503607,20 332.631579,20 L311.578947,20 C310.706919,20 310,19.2930812 310,18.4210526 C310,17.5490241 310.706919,16.8421053 311.578947,16.8421053 Z" id="Combined-Shape"></path>
                </g>
            </g>
        </g>
    </g>
</svg>
