
<svg width="18px" height="18px" viewBox="0 0 18 18" version="1.1" xmlns="http://www.w3.org/2000/svg" xmlns:xlink="http://www.w3.org/1999/xlink">
    <!-- Generator: Sketch 51 (57462) - http://www.bohemiancoding.com/sketch -->
    <desc>Created with Sketch.</desc>
    <defs></defs>
    <g id="HOME" stroke="none" stroke-width="1" fill="none" fill-rule="evenodd">
        <g id="Mobile---open-nav" transform="translate(-336.000000, -24.000000)">
            <g id="close" transform="translate(336.000000, 24.000000)" fill="#ED684A">
                <path d="M8.99562413,6.28471145 L14.3783345,0.902001083 C15.121494,0.158841586 16.3282305,0.160678431 17.0736558,0.906103792 C17.8190812,1.65152915 17.820918,2.85826561 17.0777585,3.60142511 L11.6950482,8.98413548 L17.1141366,14.4032239 C17.859562,15.1486493 17.8615211,16.3552634 17.1185125,17.0982721 C16.3755038,17.8412807 15.1688897,17.8393216 14.4234643,17.0938962 L9.00437587,11.6748078 L3.6216655,17.0575181 C2.878506,17.8006776 1.67176954,17.7988408 0.926344183,17.0534154 C0.180918822,16.3079901 0.179081977,15.1012536 0.922241474,14.3580941 L6.30495184,8.97538374 L0.926344183,3.59677608 C0.180918822,2.85135072 0.17895968,1.64473656 0.921968317,0.901727926 C1.66497695,0.158719289 2.87159111,0.160678431 3.61701648,0.906103792 L8.99562413,6.28471145 Z" id="Combined-Shape"></path>
            </g>
        </g>
    </g>
</svg>
