<?xml version="1.0" encoding="UTF-8" standalone="no"?>
<!DOCTYPE svg PUBLIC "-//W3C//DTD SVG 1.1//EN" "http://www.w3.org/Graphics/SVG/1.1/DTD/svg11.dtd">
<svg width="100%" height="100%" viewBox="0 0 35 35" version="1.1" xmlns="http://www.w3.org/2000/svg" xmlns:xlink="http://www.w3.org/1999/xlink" xml:space="preserve" xmlns:serif="http://www.serif.com/" style="fill-rule:evenodd;clip-rule:evenodd;stroke-linejoin:round;stroke-miterlimit:1.41421;">
    <g id="CD_Home_Final">
        <path id="Combined-Shape" d="M17.5,35C7.835,35 0,27.165 0,17.5C0,7.835 7.835,0 17.5,0C27.165,0 35,7.835 35,17.5C35,27.165 27.165,35 17.5,35ZM25.108,11L10.71,11C10.259,11 9.862,11.172 9.517,11.517C9.172,11.862 9,12.259 9,12.71L9,23.29C9,23.741 9.172,24.138 9.517,24.483C9.862,24.828 10.259,25 10.71,25L25.108,25C25.559,25 25.956,24.828 26.301,24.483C26.646,24.138 26.818,23.741 26.818,23.29L26.818,12.71C26.818,12.259 26.646,11.862 26.301,11.517C25.956,11.172 25.559,11 25.108,11ZM24.909,14.619L24.909,12.909L17.909,17.563L10.909,12.909L10.909,14.619L17.909,19.273L24.909,14.619Z" style="fill:white;"/>
    </g>
</svg>
