<?xml version="1.0" encoding="UTF-8" standalone="no"?>
<!DOCTYPE svg PUBLIC "-//W3C//DTD SVG 1.1//EN" "http://www.w3.org/Graphics/SVG/1.1/DTD/svg11.dtd">
<svg width="100%" height="100%" viewBox="0 0 35 35" version="1.1" xmlns="http://www.w3.org/2000/svg" xmlns:xlink="http://www.w3.org/1999/xlink" xml:space="preserve" xmlns:serif="http://www.serif.com/" style="fill-rule:evenodd;clip-rule:evenodd;stroke-linejoin:round;stroke-miterlimit:1.41421;">
    <g id="CD_Home_Final">
        <path id="Combined-Shape" d="M17.5,35C7.835,35 0,27.165 0,17.5C0,7.835 7.835,0 17.5,0C27.165,0 35,7.835 35,17.5C35,27.165 27.165,35 17.5,35ZM19.404,27L19.404,18.333L22.313,18.333L22.749,14.956L19.404,14.956L19.404,12.799C19.404,11.821 19.676,11.155 21.078,11.155L22.867,11.154L22.867,8.133C22.557,8.092 21.496,8 20.261,8C17.682,8 15.916,9.574 15.916,12.465L15.916,14.956L13,14.956L13,18.333L15.916,18.333L15.916,27L19.404,27Z" style="fill:white;"/>
    </g>
</svg>
