<?xml version="1.0" encoding="UTF-8" standalone="no"?>
<!DOCTYPE svg PUBLIC "-//W3C//DTD SVG 1.1//EN" "http://www.w3.org/Graphics/SVG/1.1/DTD/svg11.dtd">
<svg width="100%" height="100%" viewBox="0 0 35 35" version="1.1" xmlns="http://www.w3.org/2000/svg" xmlns:xlink="http://www.w3.org/1999/xlink" xml:space="preserve" xmlns:serif="http://www.serif.com/" style="fill-rule:evenodd;clip-rule:evenodd;stroke-linejoin:round;stroke-miterlimit:1.41421;">
    <g id="CD_Home_Final">
        <path id="Combined-Shape" d="M17.5,35C7.835,35 0,27.165 0,17.5C0,7.835 7.835,0 17.5,0C27.165,0 35,7.835 35,17.5C35,27.165 27.165,35 17.5,35ZM13.305,15.869L13.305,18.767C13.305,18.767 16.112,18.763 17.255,18.763C16.636,20.642 15.674,21.666 13.305,21.666C10.909,21.666 9.038,19.719 9.038,17.318C9.038,14.917 10.909,12.971 13.305,12.971C14.572,12.971 15.391,13.417 16.141,14.039C16.742,13.437 16.692,13.351 18.221,11.904C16.923,10.721 15.198,10 13.305,10C9.271,10 6,13.276 6,17.318C6,21.36 9.271,24.636 13.305,24.636C19.336,24.636 20.81,19.376 20.321,15.869L13.305,15.869ZM26.469,16.014L26.469,13.478L24.661,13.478L24.661,16.014L22.057,16.014L22.057,17.825L24.661,17.825L24.661,20.434L26.469,20.434L26.469,17.825L29,17.825L29,16.014L26.469,16.014Z" style="fill:white;"/>
    </g>
</svg>
