<?xml version="1.0" encoding="UTF-8" standalone="no"?>
<!DOCTYPE svg PUBLIC "-//W3C//DTD SVG 1.1//EN" "http://www.w3.org/Graphics/SVG/1.1/DTD/svg11.dtd">
<svg width="100%" height="100%" viewBox="0 0 35 35" version="1.1" xmlns="http://www.w3.org/2000/svg" xmlns:xlink="http://www.w3.org/1999/xlink" xml:space="preserve" xmlns:serif="http://www.serif.com/" style="fill-rule:evenodd;clip-rule:evenodd;stroke-linejoin:round;stroke-miterlimit:1.41421;">
    <g id="CD_Home_Final">
        <path id="Combined-Shape" d="M17.5,35C7.835,35 0,27.165 0,17.5C0,7.835 7.835,0 17.5,0C27.165,0 35,7.835 35,17.5C35,27.165 27.165,35 17.5,35ZM9.429,14.956L9.429,25.454L12.742,25.454L12.742,14.956L9.429,14.956ZM21.795,14.855C19.897,14.855 18.707,15.883 18.488,16.604L18.488,14.956L14.765,14.956C14.813,15.831 14.765,25.454 14.765,25.454L18.488,25.454L18.488,19.773C18.488,19.458 18.473,19.142 18.569,18.915C18.824,18.284 19.374,17.629 20.363,17.629C21.655,17.629 22.243,18.6 22.243,20.022L22.243,25.454L26,25.454L26,19.617C26,16.365 24.15,14.855 21.795,14.855ZM11.024,10C9.8,10 9,10.786 9,11.823C9,12.84 9.778,13.643 10.977,13.643L11.001,13.643C12.247,13.643 13.022,12.837 13.022,11.82C12.998,10.784 12.247,10 11.024,10Z" style="fill:white;"/>
    </g>
</svg>
