
<svg width="35px" height="35px" viewBox="0 0 35 35" version="1.1" xmlns="http://www.w3.org/2000/svg" xmlns:xlink="http://www.w3.org/1999/xlink">
    <!-- Generator: Sketch 51 (57462) - http://www.bohemiancoding.com/sketch -->
    <desc>Created with Sketch.</desc>
    <defs></defs>
    <g id="HOME" stroke="none" stroke-width="1" fill="none" fill-rule="evenodd">
        <g id="CD_Home_Final" transform="translate(-1148.000000, -5023.000000)" fill="#FFFFFF">
            <g id="Footer" transform="translate(0.000000, 4932.000000)">
                <g id="social-media" transform="translate(923.000000, 91.000000)">
                    <g id="slack" transform="translate(225.000000, 0.000000)">
                        <path d="M17.5,35 C7.83501688,35 0,27.1649831 0,17.5 C0,7.83501688 7.83501688,0 17.5,0 C27.1649831,0 35,7.83501688 35,17.5 C35,27.1649831 27.1649831,35 17.5,35 Z M26.9738617,14.557195 C24.8238617,7.39052832 21.7238617,5.72386165 14.557195,7.87386165 C7.39052832,10.0238617 5.72386165,13.1238617 7.87386165,20.2905283 C10.0238617,27.457195 13.1238617,29.1238617 20.2905283,26.9738617 C27.457195,24.8238617 29.1238617,21.7238617 26.9738617,14.557195 Z M23.5870697,19.470403 L22.2370697,19.920403 L22.7037364,21.320403 C22.8870697,21.8870697 22.5870697,22.5037364 22.020403,22.6870697 C21.9037364,22.720403 21.770403,22.7537364 21.6537364,22.7370697 C21.220403,22.720403 20.8037364,22.4370697 20.6537364,22.0037364 L20.1870697,20.6037364 L17.4037364,21.5370697 L17.870403,22.9370697 C18.0537364,23.5037364 17.7537364,24.120403 17.1870697,24.3037364 C17.070403,24.3370697 16.9370697,24.370403 16.820403,24.3537364 C16.3870697,24.3370697 15.970403,24.0537364 15.820403,23.620403 L15.3537364,22.220403 L14.0037364,22.670403 C13.8870697,22.7037364 13.7537364,22.7370697 13.6370697,22.720403 C13.2037364,22.7037364 12.7870697,22.420403 12.6370697,21.9870697 C12.4537364,21.420403 12.7537364,20.8037364 13.320403,20.620403 L14.670403,20.170403 L13.770403,17.4870697 L12.420403,17.9370697 C12.3037364,17.970403 12.170403,18.0037364 12.0537364,17.9870697 C11.620403,17.970403 11.2037364,17.6870697 11.0537364,17.2537364 C10.870403,16.6870697 11.170403,16.070403 11.7370697,15.8870697 L13.0870697,15.4370697 L12.620403,14.0370697 C12.4370697,13.470403 12.7370697,12.8537364 13.3037364,12.670403 C13.870403,12.4870697 14.4870697,12.7870697 14.670403,13.3537364 L15.1370697,14.7537364 L17.920403,13.820403 L17.4537364,12.420403 C17.270403,11.8537364 17.570403,11.2370697 18.1370697,11.0537364 C18.7037364,10.870403 19.320403,11.170403 19.5037364,11.7370697 L19.970403,13.1370697 L21.320403,12.6870697 C21.8870697,12.5037364 22.5037364,12.8037364 22.6870697,13.370403 C22.870403,13.9370697 22.570403,14.5537364 22.0037364,14.7370697 L20.6537364,15.1870697 L21.5537364,17.870403 L22.9037364,17.420403 C23.470403,17.2370697 24.0870697,17.5370697 24.270403,18.1037364 C24.4537364,18.670403 24.1537364,19.2870697 23.5870697,19.470403 Z M15.6260055,16.5391634 L16.5258722,19.22573 L19.3072589,18.2941034 L18.4073922,15.6075367 L15.6260055,16.5391634 Z" id="Combined-Shape"></path>
                    </g>
                </g>
            </g>
        </g>
    </g>
</svg>
