<?xml version="1.0" encoding="UTF-8" standalone="no"?>
<!DOCTYPE svg PUBLIC "-//W3C//DTD SVG 1.1//EN" "http://www.w3.org/Graphics/SVG/1.1/DTD/svg11.dtd">
<svg width="100%" height="100%" viewBox="0 0 35 35" version="1.1" xmlns="http://www.w3.org/2000/svg" xmlns:xlink="http://www.w3.org/1999/xlink" xml:space="preserve" xmlns:serif="http://www.serif.com/" style="fill-rule:evenodd;clip-rule:evenodd;stroke-linejoin:round;stroke-miterlimit:1.41421;">
    <g id="CD_Home_Final">
        <path id="Combined-Shape" d="M17.5,35C7.835,35 0,27.165 0,17.5C0,7.835 7.835,0 17.5,0C27.165,0 35,7.835 35,17.5C35,27.165 27.165,35 17.5,35ZM24.996,11.253C24.344,11.65 23.622,11.938 22.852,12.092C22.238,11.42 21.36,11 20.388,11C18.526,11 17.015,12.55 17.015,14.461C17.015,14.732 17.044,14.995 17.102,15.249C14.297,15.104 11.811,13.728 10.145,11.632C9.854,12.145 9.688,12.74 9.688,13.374C9.688,14.573 10.284,15.633 11.19,16.253C10.637,16.237 10.116,16.08 9.66,15.822L9.66,15.864C9.66,17.542 10.824,18.941 12.369,19.258C12.086,19.339 11.787,19.38 11.479,19.38C11.262,19.38 11.05,19.359 10.844,19.318C11.274,20.693 12.519,21.694 13.997,21.72C12.842,22.649 11.386,23.202 9.805,23.202C9.533,23.202 9.264,23.187 9,23.155C10.493,24.135 12.268,24.708 14.174,24.708C20.382,24.708 23.776,19.436 23.776,14.862C23.776,14.712 23.773,14.562 23.767,14.414C24.427,13.926 24.999,13.317 25.45,12.623C24.846,12.898 24.195,13.084 23.512,13.168C24.209,12.74 24.744,12.062 24.996,11.253Z" style="fill:white;"/>
    </g>
</svg>
